<svg viewBox="0 0 200 200" xmlns="http://www.w3.org/2000/svg" xmlns:xlink="http://www.w3.org/1999/xlink" width="200.000000" height="200.000000" fill="none">
	<rect id="BulbFilled 1" width="200.000000" height="200.000000" x="0.000000" y="0.000000" />
	<path id="矢量 19" d="M113.125 170.833C113.964 170.833 114.784 171.087 115.477 171.561C116.17 172.034 116.704 172.707 117.008 173.489C117.313 174.271 117.374 175.127 117.184 175.945C116.993 176.762 116.56 177.503 115.942 178.071C112.117 181.579 106.804 183.333 100 183.333C93.1958 183.333 87.8833 181.579 84.0583 178.071C83.4394 177.503 83.0064 176.762 82.8162 175.944C82.6259 175.126 82.6874 174.269 82.9923 173.487C83.2973 172.704 83.8316 172.032 84.5252 171.559C85.2188 171.085 86.0393 170.832 86.8792 170.833L113.121 170.833L113.125 170.833ZM118.75 154.167C120.07 154.167 121.356 154.585 122.424 155.36C123.491 156.136 124.286 157.23 124.694 158.485C125.102 159.741 125.102 161.093 124.694 162.348C124.286 163.603 123.491 164.697 122.424 165.473C121.356 166.249 120.07 166.667 118.75 166.667L81.25 166.667C79.9301 166.667 78.6441 166.249 77.5763 165.473C76.5085 164.697 75.7138 163.603 75.3059 162.348C74.898 161.093 74.898 159.741 75.3059 158.485C75.7138 157.23 76.5085 156.136 77.5763 155.36C78.6441 154.585 79.9301 154.167 81.25 154.167L118.75 154.167ZM100 16.6667C134.517 16.6667 162.5 44.65 162.5 79.1667C162.5 101.45 150.833 121.013 133.279 132.079C133.51 135.137 132.892 138.2 131.495 140.93C130.097 143.659 127.973 145.951 125.357 147.551C122.741 149.151 119.734 149.999 116.667 150L83.3333 150C80.265 150 77.2562 149.154 74.6383 147.553C72.0205 145.953 69.8952 143.661 68.4967 140.93C67.0983 138.199 66.4808 135.135 66.7125 132.075C49.1667 121.013 37.5 101.45 37.5 79.1667C37.5 44.65 65.4833 16.6667 100 16.6667L100 16.6667ZM105.683 37.5C104.669 37.4725 103.665 37.7173 102.777 38.2089C101.889 38.7004 101.149 39.4209 100.633 40.2953C100.118 41.1697 99.8461 42.1662 99.8461 43.1813C99.8461 44.1963 100.118 45.1928 100.633 46.0672C101.149 46.9417 101.889 47.6621 102.777 48.1537C103.665 48.6452 104.669 48.89 105.683 48.8625C110.005 48.8633 114.251 50.0016 117.994 52.163C121.737 54.3245 124.845 57.433 127.006 61.1762C129.167 64.9194 130.304 69.1654 130.304 73.4875C130.277 74.5022 130.521 75.5057 131.013 76.3937C131.505 77.2818 132.225 78.022 133.099 78.5374C133.974 79.0528 134.97 79.3246 135.985 79.3246C137 79.3246 137.997 79.0528 138.871 78.5374C139.746 78.022 140.466 77.2818 140.958 76.3937C141.449 75.5057 141.694 74.5022 141.667 73.4875C141.667 67.1707 140.005 60.9649 136.847 55.4941C133.689 50.0233 129.147 45.4802 123.676 42.3216C118.206 39.1629 112 37.5 105.683 37.5Z" fill="rgb(0,0,0)" fill-rule="nonzero" />
</svg>
