<svg viewBox="0 0 200 200" xmlns="http://www.w3.org/2000/svg" xmlns:xlink="http://www.w3.org/1999/xlink" width="200.000000" height="200.000000" fill="none">
	<rect id="图标-多角星 1" width="200.000000" height="200.000000" x="0.000000" y="0.000000" />
	<path id="矢量 2" d="M163.394 100.068L177.759 114.122C179.837 116.201 180.461 118.647 179.63 121.461C178.798 124.267 177.024 125.985 174.321 126.609L154.648 131.605L160.268 150.967C161.099 153.885 160.476 156.379 158.397 158.466C156.319 160.544 153.817 161.168 150.899 160.336L131.537 154.716L126.541 174.382C125.917 177.3 124.142 179.123 121.232 179.85C118.323 180.585 115.924 179.906 114.054 177.827L100 163.462L85.9463 177.827C85.0346 178.817 83.8636 179.531 82.5664 179.889C81.2691 180.246 79.8977 180.233 78.6077 179.85C75.8017 179.131 74.083 177.3 73.4595 174.39L68.4631 154.716L49.1013 160.336C46.1835 161.168 43.6893 160.544 41.6028 158.466C39.5243 156.387 38.9008 153.885 39.7322 150.967L45.3521 131.605L25.6865 126.609C22.9685 125.985 21.2098 124.267 20.3704 121.461C19.9367 120.188 19.8826 118.816 20.2148 117.513C20.5469 116.21 21.2509 115.032 22.241 114.122L36.6065 100.068L22.241 86.0148C21.2509 85.1049 20.5469 83.9266 20.2148 82.6236C19.8826 81.3205 19.9367 79.949 20.3704 78.6762C21.2018 75.8702 22.9765 74.1515 25.6785 73.528L45.3521 68.5316L39.7322 49.1698C38.9008 46.2519 39.5243 43.7578 41.6028 41.6713C43.6813 39.5928 46.1835 38.9693 49.1013 39.8007L68.4631 45.4206L73.4595 25.755C74.083 22.8371 75.8577 21.0145 78.7676 20.287C81.6774 19.5515 84.0757 20.231 85.9463 22.3095L100 36.9947L114.054 22.3095C114.964 21.3194 116.142 20.6154 117.445 20.2832C118.748 19.9511 120.119 20.0052 121.392 20.4389C124.198 21.2703 125.917 23.045 126.541 25.747L131.537 45.4206L150.899 39.8007C153.817 38.9693 156.311 39.5928 158.397 41.6713C160.476 43.7498 161.099 46.2519 160.268 49.1698L154.648 68.5316L174.313 73.528C177.031 74.1515 178.79 75.8702 179.63 78.6762C180.063 79.949 180.117 81.3205 179.785 82.6236C179.453 83.9266 178.749 85.1049 177.759 86.0148L163.394 100.068Z" fill="rgb(0,0,0)" fill-rule="nonzero" />
</svg>
