<svg viewBox="0 0 200 200" xmlns="http://www.w3.org/2000/svg" xmlns:xlink="http://www.w3.org/1999/xlink" width="200.000000" height="200.000000" fill="none">
	<rect id="完成 1" width="200.000000" height="200.000000" x="0.000000" y="0.000000" />
	<path id="矢量 18" d="M100 24C141.975 24 176 58.0252 176 100C176 141.975 141.975 176 100 176C58.0252 176 24 141.975 24 100C24 58.0252 58.0252 24 100 24ZM139.079 66.6816C138.059 65.8225 136.83 65.2471 135.516 65.0134C134.203 64.7796 132.851 64.8957 131.597 65.35C130.343 65.8042 129.23 66.5807 128.371 67.6012L85.3016 118.772L71.4924 103.162L70.816 102.478C69.6627 101.436 68.2179 100.773 66.6762 100.578C65.1346 100.384 63.5703 100.666 62.194 101.387C60.8178 102.109 59.6958 103.235 58.9792 104.614C58.2626 105.992 57.9858 107.558 58.1862 109.099C58.3866 110.64 59.0546 112.082 60.1 113.232L79.7536 135.446L80.3996 136.092C81.4139 136.995 82.6515 137.61 83.9839 137.872C85.3162 138.135 86.6945 138.036 87.9754 137.585C89.2564 137.134 90.3932 136.349 91.2676 135.31L140.006 77.39L140.569 76.6224C141.234 75.5925 141.641 74.4169 141.754 73.1959C141.867 71.9748 141.682 70.7446 141.217 69.6103C140.751 68.4759 140.017 67.4711 139.079 66.6816L139.079 66.6816Z" fill="rgb(0,0,0)" fill-rule="nonzero" />
</svg>
