<svg viewBox="0 0 200 200" xmlns="http://www.w3.org/2000/svg" xmlns:xlink="http://www.w3.org/1999/xlink" width="200.000000" height="200.000000" fill="none">
	<rect id="AI星星 1" width="200.000000" height="200.000000" x="0.000000" y="0.000000" />
	<path id="矢量 1" d="M48.9046 61.4809C44.467 64.6604 39.3245 67.0105 29.0946 71.6693C22.6664 74.5862 19.3209 76.1345 18.2703 78.1113C17.7304 79.129 17.4482 80.2634 17.4482 81.4153C17.4482 82.5673 17.7304 83.7017 18.2703 84.7193C19.3209 86.6961 22.6664 88.2444 29.0946 91.1613C39.3245 95.8201 44.467 98.1563 48.9046 101.336C53.7325 104.818 57.9665 109.057 61.4431 113.888C64.6227 118.312 66.9728 123.468 71.6315 133.698C74.5484 140.126 76.0967 143.472 78.0736 144.523C80.1195 145.628 82.6355 145.628 84.6815 144.523C86.6584 143.472 88.2067 140.126 91.1236 133.698C95.7823 123.468 98.1186 118.326 101.312 113.888C104.79 109.061 109.024 104.828 113.85 101.35C118.274 98.1564 123.431 95.8201 133.66 91.1613C140.089 88.2306 143.434 86.6961 144.485 84.7193C145.025 83.7017 145.307 82.5673 145.307 81.4153C145.307 80.2634 145.025 79.129 144.485 78.1113C143.434 76.1345 140.089 74.5862 133.66 71.6693C123.431 67.0105 118.288 64.6743 113.85 61.4809C109.024 58.0031 104.79 53.7691 101.312 48.9424C98.1186 44.5048 95.7823 39.3622 91.1236 29.1324C88.2067 22.7041 86.6584 19.3587 84.6815 18.3081C83.6639 17.7682 82.5295 17.486 81.3775 17.486C80.2256 17.486 79.0912 17.7682 78.0736 18.3081C76.0967 19.3587 74.5484 22.7041 71.6315 29.1324C66.9728 39.3622 64.6365 44.5048 61.4431 48.9424C57.9653 53.7691 53.7314 58.0031 48.9046 61.4809L48.9046 61.4809ZM137.296 146.223C135.776 147.177 134.103 147.937 130.771 149.444C127.993 150.716 126.513 151.393 125.891 152.126C125.416 152.684 125.079 153.347 124.908 154.061C124.737 154.775 124.737 155.518 124.908 156.232C125.079 156.945 125.416 157.608 125.891 158.167C126.513 158.886 127.993 159.577 130.771 160.835C134.089 162.356 135.776 163.116 137.296 164.056C140.891 166.296 143.946 169.351 146.199 172.959C147.139 174.479 147.899 176.138 149.406 179.484C150.678 182.249 151.355 183.742 152.088 184.364C152.646 184.841 153.309 185.18 154.023 185.351C154.736 185.523 155.481 185.523 156.195 185.351C156.909 185.18 157.571 184.841 158.129 184.364C158.848 183.728 159.539 182.249 160.797 179.47C162.318 176.152 163.078 174.466 164.018 172.959C166.258 169.351 169.313 166.296 172.921 164.056C174.442 163.116 176.101 162.356 179.446 160.835C182.211 159.577 183.704 158.9 184.326 158.167C184.806 157.609 185.146 156.944 185.319 156.228C185.491 155.513 185.491 154.766 185.319 154.051C185.146 153.335 184.806 152.67 184.326 152.112C183.704 151.393 182.225 150.716 179.446 149.444C176.114 147.923 174.428 147.177 172.921 146.237C169.307 143.989 166.26 140.938 164.018 137.32C162.812 135.218 161.737 133.043 160.797 130.809C159.539 128.03 158.862 126.551 158.129 125.915C157.571 125.44 156.908 125.102 156.194 124.932C155.481 124.761 154.737 124.761 154.023 124.932C153.31 125.102 152.647 125.44 152.088 125.915C151.355 126.551 150.678 128.03 149.406 130.809C147.886 134.127 147.139 135.813 146.199 137.32C143.955 140.933 140.909 143.979 137.296 146.223L137.296 146.223Z" fill="rgb(0,0,0)" fill-rule="nonzero" />
</svg>
