<svg viewBox="0 0 200 200" xmlns="http://www.w3.org/2000/svg" xmlns:xlink="http://www.w3.org/1999/xlink" width="200.000000" height="200.000000" fill="none">
	<rect id="命令行 1" width="200.000000" height="200.000000" x="0.000000" y="0.000000" />
	<path id="矢量 17" d="M172.787 57.759C170.951 50.4041 167.15 43.687 161.79 38.3269C156.43 32.9668 149.713 29.1656 142.358 27.3304C114.35 22.9265 85.8254 22.9265 57.8173 27.3304C50.4624 29.1656 43.7453 32.9668 38.3852 38.3269C33.0251 43.687 29.2239 50.4041 27.3887 57.759C22.9848 85.7672 22.9848 114.292 27.3887 142.3C29.2239 149.655 33.0251 156.372 38.3852 161.732C43.7453 167.092 50.4624 170.893 57.8173 172.728C85.8254 177.132 114.35 177.132 142.358 172.728C149.713 170.893 156.43 167.092 161.79 161.732C167.15 156.372 170.951 149.655 172.787 142.3C177.185 114.291 177.185 85.7675 172.787 57.759ZM96.9687 104.365C90.3757 114.856 81.5432 123.758 71.1044 130.433C69.4387 131.465 67.5285 132.036 65.5695 132.087C63.6105 132.139 61.673 131.668 59.9556 130.724C58.2381 129.781 56.8024 128.397 55.7955 126.716C54.7886 125.035 54.2466 123.116 54.2251 121.157C54.2036 119.197 54.7034 117.267 55.6732 115.564C56.643 113.861 58.0481 112.447 59.7444 111.465C65.1544 108.064 69.9545 103.778 73.9444 98.7868C69.8519 93.9223 65.0676 89.6847 59.7444 86.2097C58.0703 85.2129 56.6881 83.7929 55.7369 82.0925C54.7856 80.3921 54.2987 78.4713 54.3252 76.5231C54.3518 74.5749 54.8907 72.668 55.8879 70.9941C56.8851 69.3202 58.3054 67.9384 60.006 66.9875C61.7066 66.0366 63.6276 65.5502 65.5758 65.5772C67.524 65.6041 69.4308 66.1435 71.1044 67.1411C81.5224 73.7563 90.3535 82.5874 96.9687 93.0054C97.9965 94.7218 98.5393 96.6848 98.5393 98.6854C98.5393 100.686 97.9965 102.649 96.9687 104.365ZM136.526 130.433L109.14 130.433C104.069 130.433 100.012 127.846 100.012 122.825C100.012 117.805 104.119 115.218 109.14 115.218L136.526 115.218C141.597 115.218 145.654 117.805 145.654 122.825C145.654 127.846 141.547 130.433 136.526 130.433Z" fill="rgb(0,0,0)" fill-rule="nonzero" />
</svg>
